<svg xmlns="http://www.w3.org/2000/svg" xmlns:xlink="http://www.w3.org/1999/xlink" preserveAspectRatio="xMidYMid" width="48" height="38" viewBox="0 0 48 38">
  <defs>
    <style>
      .cls-1 {
        fill: #8d81ac;
        fill-rule: evenodd;
      }
    </style>
  </defs>
  <path d="M48.006,4.487 C46.241,5.254 44.342,5.766 42.349,5.999 C44.383,4.812 45.944,2.932 46.680,0.690 C44.777,1.791 42.670,2.589 40.425,3.019 C38.629,1.156 36.068,-0.010 33.236,-0.010 C27.796,-0.010 23.385,4.284 23.385,9.582 C23.385,10.334 23.472,11.066 23.640,11.768 C15.453,11.368 8.195,7.550 3.336,1.745 C2.489,3.163 2.003,4.810 2.003,6.569 C2.003,9.895 3.742,12.832 6.385,14.552 C4.771,14.502 3.251,14.073 1.923,13.352 C1.922,13.393 1.922,13.434 1.922,13.475 C1.922,18.122 5.318,21.998 9.825,22.879 C8.998,23.098 8.128,23.217 7.229,23.217 C6.594,23.217 5.977,23.157 5.375,23.043 C6.630,26.856 10.267,29.628 14.577,29.705 C11.206,32.279 6.959,33.812 2.343,33.812 C1.548,33.812 0.765,33.766 -0.006,33.679 C4.354,36.401 9.531,37.990 15.094,37.990 C33.213,37.990 43.120,23.371 43.120,10.695 C43.120,10.280 43.111,9.864 43.092,9.454 C45.016,8.102 46.687,6.413 48.006,4.487 Z" class="cls-1"/>
</svg>
